<?xml version="1.0" standalone="no"?>
<svg viewBox="0 0 200 200" xmlns="http://www.w3.org/2000/svg">
  <path fill="#D0E2FF" d="M39.4,-65.1C53.2,-60.3,67.9,-54,76.5,-42.9C85.1,-31.8,87.6,-15.9,85,-1.5C82.4,12.9,74.8,25.8,66.6,37.6C58.4,49.4,49.6,60.1,38.4,67.8C27.2,75.6,13.6,80.5,0.5,79.7C-12.6,78.8,-25.2,72.1,-39.4,66.1C-53.6,60.1,-69.5,54.7,-78.1,43.7C-86.7,32.8,-88,16.4,-87.6,0.2C-87.2,-16,-85.1,-31.9,-77,-43.8C-69,-55.6,-55,-63.4,-41.2,-68.1C-27.4,-72.9,-13.7,-74.8,-0.4,-74C12.8,-73.3,25.6,-69.9,39.4,-65.1Z" transform="translate(100 100)" />
</svg>
